PathFileType  4	(X/Y/Z) C:\Users\antoi\Documents\MyRepositories\mobilecap\ResultsAnalysis
DataRate	CameraRate	NumFrames	NumMarkers	Units	OrigDataRate	OrigDataStartFrame	OrigNumFrames
100.0	100.0	4	55	mm	100.0	1	517
Frame#	Time	r_knee			r_shank_antsup			r_ankle			r_calc			r_5meta			r_toe			L_knee			L_shank_antsup			L_ankle			L_calc			L_5meta			L_toe			r_mknee			r_mankle			L_mknee			L_mankle			r_sh2			r_sh3			r_sh4			L_sh2			L_sh3			r_thigh1			r_thigh2			r_thigh3			r_thigh4			r_thigh5			L_thigh1			L_thigh2			L_thigh3			L_thigh4			r.ASIS			r.PSIS			L.ASIS			L.PSIS			C7			R_Shoulder			L_Shoulder			R_Sternum			L_Sternum			R_humerus			R_elbow_med			R_elbow_lat			R_forearm			R_wrist_radius			R_wrist_ulna			L_humerus			L_elbow_med			L_elbow_lat			L_forearm			L_wrist_radius			L_wrist_ulna			R_HJC			L_HJC			R_HJC_reg			L_HJC_reg			
		X1	Y1	Z1	X2	Y2	Z2	X3	Y3	Z3	X4	Y4	Z4	X5	Y5	Z5	X6	Y6	Z6	X7	Y7	Z7	X8	Y8	Z8	X9	Y9	Z9	X10	Y10	Z10	X11	Y11	Z11	X12	Y12	Z12	X13	Y13	Z13	X14	Y14	Z14	X15	Y15	Z15	X16	Y16	Z16	X17	Y17	Z17	X18	Y18	Z18	X19	Y19	Z19	X20	Y20	Z20	X21	Y21	Z21	X22	Y22	Z22	X23	Y23	Z23	X24	Y24	Z24	X25	Y25	Z25	X26	Y26	Z26	X27	Y27	Z27	X28	Y28	Z28	X29	Y29	Z29	X30	Y30	Z30	X31	Y31	Z31	X32	Y32	Z32	X33	Y33	Z33	X34	Y34	Z34	X35	Y35	Z35	X36	Y36	Z36	X37	Y37	Z37	X38	Y38	Z38	X39	Y39	Z39	X40	Y40	Z40	X41	Y41	Z41	X42	Y42	Z42	X43	Y43	Z43	X44	Y44	Z44	X45	Y45	Z45	X46	Y46	Z46	X47	Y47	Z47	X48	Y48	Z48	X49	Y49	Z49	X50	Y50	Z50	X51	Y51	Z51	X52	Y52	Z52	X53	Y53	Z53	X54	Y54	Z54	X55	Y55	Z55	

1	0.00000000	-219.47312	500.13229	-434.41140	-192.10091	409.46179	-437.96049	-283.89862	93.59454	-433.48981	-343.49167	57.64799	-478.25670	-162.66650	43.73494	-390.03362	-129.54972	70.41170	-446.32931	-220.03783	503.69183	-765.27887	-191.45447	420.66154	-758.86446	-274.93518	97.78094	-772.94851	-345.34948	50.03509	-725.53101	-167.75243	40.98718	-813.59752	-121.18674	65.03948	-756.98769	-234.33554	483.28411	-551.77171	-261.50302	110.85731	-509.79160	-230.86267	490.86632	-645.99990	-255.18283	103.75432	-691.82660	-204.73026	296.51699	-434.73767	-254.54503	416.00190	-395.08652	-272.91428	302.90688	-388.31834	-270.16901	443.59296	-801.60260	-285.10084	321.54179	-810.38549	-147.31917	779.34833	-430.65396	-148.90771	668.51390	-436.06631	-202.38369	642.36627	-404.11663	-258.56353	776.71846	-409.72968	-253.26836	660.90404	-418.86669	-129.91916	749.14391	-765.99244	-127.79149	609.32532	-749.94019	-233.01724	744.66771	-807.78673	-233.96418	612.50751	-779.50606	-113.90683	966.25195	-477.86558	-317.95305	1010.35530	-565.41033	-111.23683	964.59399	-732.98712	-314.34897	1010.13916	-658.48816	-287.35865	1462.65491	-611.33598	-225.43558	1432.08948	-442.49439	-198.02974	1434.49683	-761.50903	-160.24715	1392.48999	-579.57141	-160.43739	1395.21519	-625.05019	-185.17145	1301.77942	-391.29494	-271.29453	1098.95446	-424.59897	-255.02305	1111.01172	-358.70224	-193.22268	1050.52490	-343.69497	-133.90149	891.20067	-379.63957	-160.75788	890.30202	-336.43424	-165.93398	1293.68164	-816.55731	-249.35739	1096.05676	-782.96350	-215.58006	1107.33703	-855.12282	-160.46713	1052.62182	-855.67557	-107.77585	883.54658	-821.80741	-133.80038	884.54486	-867.40784	-203.06286	884.09642	-505.81260	-197.96845	883.54057	-695.30583	-192.96211	892.65037	-516.80486	-186.44664	892.25962	-685.07131	
2	0.01000000	-219.46393	500.18216	-434.54275	-192.07561	409.49594	-438.00115	-283.85572	93.57985	-433.51951	-343.49288	57.69094	-478.22139	-162.73335	43.72940	-390.00776	-129.58308	70.38547	-446.29554	-220.04689	503.69129	-765.28739	-191.45039	420.66412	-758.85897	-274.97288	97.85057	-772.98248	-345.34339	50.07557	-725.57793	-167.72068	41.03048	-813.63663	-121.19205	65.00638	-756.94289	-234.33774	483.29568	-551.76493	-261.50775	110.85591	-509.78377	-230.85754	490.87386	-645.99549	-255.17563	103.75433	-691.82014	-204.61318	296.46817	-434.76428	-254.53903	415.97827	-395.08149	-272.90005	302.82456	-388.48412	-270.17655	443.59799	-801.59920	-285.08424	321.54582	-810.36976	-147.37637	779.42577	-430.63563	-148.97841	668.60454	-435.90872	-202.37738	642.38150	-404.16596	-258.54221	776.61588	-409.79931	-253.25782	660.91539	-418.86222	-129.90862	749.09874	-766.02258	-127.81366	609.30746	-750.01975	-233.05368	744.70238	-807.82390	-233.96812	612.52893	-779.51038	-113.91323	966.26423	-477.87677	-317.92615	1010.36087	-565.42302	-111.27226	964.65473	-733.05048	-314.34891	1010.13696	-658.48662	-287.36782	1462.67967	-611.32791	-225.42155	1432.09254	-442.47956	-198.05478	1434.50254	-761.49907	-160.24886	1392.49334	-579.56936	-160.50610	1395.16349	-625.02519	-185.17302	1301.77432	-391.26653	-271.26575	1098.90688	-424.58400	-254.99578	1110.99578	-358.65441	-193.19784	1050.51959	-343.68077	-133.92571	891.33034	-379.40456	-160.73297	890.21097	-336.45676	-165.91964	1293.66733	-816.52836	-249.39879	1096.05056	-782.97415	-215.57096	1107.34430	-855.12222	-160.46958	1052.59255	-855.58128	-107.75029	883.55092	-821.71980	-133.74843	884.52595	-867.60591	-203.04013	884.10109	-505.85149	-197.96933	883.57522	-695.34544	-192.95631	892.68162	-516.79625	-186.48699	892.27669	-685.09848	
3	0.02000000	-219.39354	500.25237	-434.48725	-192.05919	409.50899	-438.01182	-283.86011	93.58342	-433.49605	-343.49916	57.69641	-478.21563	-162.73590	43.77111	-389.95245	-129.60775	70.39190	-446.28275	-220.04783	503.69795	-765.29255	-191.44622	420.66456	-758.85899	-274.98250	97.86844	-773.02312	-345.36146	50.05619	-725.55888	-167.72478	41.03449	-813.63899	-121.20002	65.00018	-756.94027	-234.33858	483.29697	-551.76517	-261.50574	110.86164	-509.77962	-230.85656	490.87268	-645.99835	-255.20959	103.74706	-691.80301	-204.58733	296.47604	-434.77910	-254.50357	415.96247	-395.09936	-272.89884	302.79147	-388.56319	-270.17616	443.60641	-801.60845	-285.07491	321.57267	-810.37426	-147.34842	779.40544	-430.64728	-148.95789	668.61069	-435.91626	-202.36662	642.39506	-404.18659	-258.54425	776.57946	-409.82402	-253.24682	660.89943	-418.83810	-129.92182	749.06784	-766.03923	-127.81436	609.31477	-750.00157	-233.07127	744.72366	-807.83968	-233.97796	612.53942	-779.51745	-113.91149	966.26384	-477.87700	-317.91534	1010.36564	-565.45658	-111.30419	964.65677	-732.98767	-314.33929	1010.12926	-658.51101	-287.36906	1462.66901	-611.31525	-225.43860	1432.08771	-442.48844	-198.06739	1434.52242	-761.47835	-160.25584	1392.49429	-579.56657	-160.55102	1395.13320	-625.00533	-185.17830	1301.77981	-391.25574	-271.24853	1098.87200	-424.58568	-254.99417	1110.97263	-358.66050	-193.18802	1050.51624	-343.63695	-133.94786	891.25154	-379.53102	-160.75902	890.19505	-336.43823	-165.93660	1293.67140	-816.50180	-249.39746	1096.07886	-783.01987	-215.56441	1107.35186	-855.11216	-160.46698	1052.62433	-855.54044	-107.73837	883.55989	-821.69426	-133.72152	884.55235	-867.62904	-203.05442	884.10628	-505.84348	-197.96514	883.56981	-695.33690	-192.96672	892.71841	-516.77533	-186.50050	892.29101	-685.03575	
4	0.03000000	-219.33760	500.28826	-434.36294	-192.05096	409.52191	-438.00896	-283.88372	93.58561	-433.46098	-343.50418	57.71098	-478.20246	-162.71897	43.77203	-389.94491	-129.60131	70.42042	-446.29586	-220.04328	503.70983	-765.29471	-191.44318	420.66730	-758.85813	-274.98489	97.86587	-773.03167	-345.38828	50.00606	-725.50169	-167.73880	41.01690	-813.62446	-121.21282	65.01358	-756.97977	-234.34969	483.29644	-551.78439	-261.50481	110.87260	-509.77795	-230.86963	490.86448	-645.99128	-255.23596	103.74279	-691.79334	-204.63119	296.50550	-434.76409	-254.46419	415.94274	-395.14635	-272.89578	302.81613	-388.56491	-270.17166	443.61410	-801.61695	-285.09042	321.59166	-810.38620	-147.29587	779.35679	-430.66552	-148.87923	668.56570	-436.01285	-202.35377	642.39197	-404.18186	-258.51935	776.59138	-409.86958	-253.21486	660.88386	-418.83082	-129.97961	749.04912	-766.02818	-127.80695	609.32800	-749.95779	-233.07945	744.73724	-807.84756	-233.99022	612.54396	-779.52434	-113.90468	966.26701	-477.87570	-317.90139	1010.37397	-565.48426	-111.31614	964.64282	-732.91821	-314.33020	1010.12091	-658.55231	-287.37227	1462.65904	-611.27650	-225.46335	1432.07114	-442.50015	-198.07327	1434.54328	-761.44733	-160.26615	1392.49215	-579.56376	-160.56677	1395.12808	-624.99882	-185.18290	1301.78347	-391.25920	-271.24030	1098.84466	-424.57543	-255.00088	1110.94885	-358.69212	-193.22323	1050.48297	-343.59198	-133.97564	891.12676	-379.73369	-160.81169	890.21389	-336.40497	-165.94165	1293.67996	-816.48064	-249.37022	1096.08520	-783.00721	-215.55703	1107.36293	-855.10011	-160.46200	1052.66010	-855.52803	-107.73283	883.57641	-821.72663	-133.71477	884.60123	-867.51200	-203.06834	884.11605	-505.82843	-197.95351	883.55548	-695.32109	-192.96440	892.75656	-516.74492	-186.50964	892.29920	-684.96063	
